<?xml version="1.0" standalone="no"?>
<!DOCTYPE svg PUBLIC "-//W3C//DTD SVG 20010904//EN"
 "http://www.w3.org/TR/2001/REC-SVG-20010904/DTD/svg10.dtd">
<svg version="1.0" xmlns="http://www.w3.org/2000/svg"
 width="300.000000pt" height="193.000000pt" viewBox="0 0 300.000000 193.000000"
 preserveAspectRatio="xMidYMid meet">
<metadata>
Created by potrace 1.10, written by Peter Selinger 2001-2011
</metadata>
<g transform="translate(0.000000,193.000000) scale(0.100000,-0.100000)"
fill="#000000" stroke="none">
<path d="M966 1798 c-21 -30 -20 -54 4 -78 16 -16 33 -20 95 -20 l74 0 21 -69
c11 -37 20 -71 20 -74 0 -6 -157 -255 -169 -270 -4 -4 -26 2 -49 13 -68 33
-185 46 -271 31 -134 -24 -267 -111 -337 -222 -77 -122 -97 -297 -50 -431 92
-260 372 -397 630 -308 164 56 291 202 326 373 l11 57 84 0 84 0 323 346 c363
388 326 363 343 229 l6 -52 -46 -13 c-26 -7 -72 -30 -103 -50 -262 -172 -309
-526 -102 -754 256 -279 710 -186 836 172 29 82 33 219 8 303 -50 171 -192
303 -370 345 -38 9 -92 14 -121 12 -29 -3 -53 -3 -53 0 0 8 -60 367 -65 389
-5 22 -3 22 107 25 105 3 113 4 113 23 0 19 -8 20 -137 23 l-138 3 0 -28 c1
-15 9 -73 19 -127 l18 -99 -105 7 c-58 3 -248 6 -423 6 l-318 0 -15 55 c-9 30
-19 61 -22 70 -5 13 5 15 60 15 73 0 106 20 106 63 0 51 -22 57 -208 57 -165
0 -171 -1 -186 -22z m342 -35 c3 -10 -32 -13 -152 -13 -143 0 -169 4 -149 24
4 3 72 5 152 4 104 -2 146 -6 149 -15z m620 -256 l102 -2 -296 -318 -297 -317
-89 297 c-48 164 -91 309 -94 323 l-6 25 289 -3 c158 -1 334 -3 391 -5z m-718
-31 c0 -8 39 -144 86 -302 48 -159 89 -297 91 -306 5 -16 -2 -18 -54 -18 l-59
0 -13 75 c-17 104 -61 186 -142 268 l-68 68 48 72 c26 40 59 91 72 114 24 44
39 54 39 29z m-288 -211 c27 -9 50 -20 52 -24 3 -4 -51 -94 -120 -201 -68
-107 -122 -199 -121 -205 6 -16 77 -22 289 -26 225 -5 211 4 179 -98 -66 -213
-284 -350 -497 -314 -222 38 -377 222 -376 446 1 205 133 375 334 432 65 18
194 13 260 -10z m1460 -5 c178 -67 289 -229 289 -420 0 -176 -91 -324 -245
-400 -310 -153 -666 85 -643 430 8 135 70 247 183 333 45 34 144 80 153 71 2
-2 21 -104 41 -226 34 -207 38 -223 58 -226 29 -4 29 1 -13 248 -19 113 -35
209 -35 214 0 16 153 -1 212 -24z m-1290 -108 c31 -32 65 -76 76 -97 25 -51
52 -140 52 -176 l0 -28 -207 6 c-115 3 -209 6 -210 7 -1 1 30 51 68 111 39 61
88 138 110 173 21 34 43 62 48 62 4 0 33 -26 63 -58z"/>
<path d="M657 1224 c-107 -34 -193 -108 -242 -209 -99 -201 -13 -441 193 -538
61 -29 75 -32 167 -32 93 0 105 2 165 32 82 40 153 110 190 188 31 65 45 115
33 115 -9 0 -43 -73 -43 -93 -1 -22 -69 -106 -120 -146 -65 -51 -134 -73 -229
-74 -127 -1 -217 45 -305 153 -10 13 -30 51 -43 84 -21 53 -24 74 -21 152 3
80 8 100 36 154 86 163 224 225 437 197 60 -8 60 -8 30 9 -41 24 -185 29 -248
8z"/>
<path d="M2214 1221 c3 -4 29 -11 57 -15 121 -16 237 -99 288 -206 33 -70 41
-202 17 -273 -53 -156 -180 -250 -341 -251 -83 -1 -168 21 -208 53 -74 58
-107 97 -133 154 -26 55 -29 73 -29 157 0 86 3 101 33 162 34 70 96 134 164
169 40 20 57 39 36 39 -26 0 -115 -59 -157 -105 -23 -25 -55 -72 -69 -103 -24
-50 -27 -69 -27 -162 0 -93 3 -112 27 -162 85 -182 291 -271 477 -208 263 88
353 401 180 622 -36 45 -118 100 -183 121 -52 18 -141 23 -132 8z"/>
<path d="M1020 1142 c0 -5 16 -30 36 -54 38 -44 84 -131 84 -159 0 -8 7 -24
16 -35 14 -18 15 -16 9 21 -7 47 -56 150 -88 185 -33 36 -57 54 -57 42z"/>
<path d="M985 282 c-3 -3 -5 -38 -5 -79 l0 -73 43 0 c24 0 48 5 55 12 13 13
16 51 5 62 -4 3 -7 21 -7 39 -1 30 -4 32 -44 38 -23 3 -44 3 -47 1z m65 -42
c0 -13 -7 -20 -20 -20 -13 0 -20 7 -20 20 0 13 7 20 20 20 13 0 20 -7 20 -20z
m5 -65 c0 -13 -8 -21 -22 -23 -19 -3 -23 1 -23 23 0 22 4 26 23 23 14 -2 22
-10 22 -23z"/>
<path d="M1507 272 c-26 -29 -20 -51 18 -74 42 -24 40 -44 -4 -40 -22 1 -31
-2 -31 -13 0 -11 11 -15 40 -15 67 0 80 58 20 92 -39 22 -39 42 0 36 32 -5 43
15 14 26 -26 10 -40 7 -57 -12z"/>
<path d="M1617 284 c-4 -4 -7 -40 -7 -81 0 -66 2 -73 19 -73 17 0 19 5 14 35
-5 34 -5 35 26 35 29 0 31 -2 31 -35 0 -27 4 -35 18 -35 15 0 17 10 15 77 -1
58 -5 78 -15 78 -7 0 -14 -14 -16 -32 -3 -29 -7 -33 -33 -33 -28 0 -30 2 -27
32 3 29 -10 46 -25 32z"/>
<path d="M1785 265 c-29 -28 -33 -79 -9 -113 11 -16 25 -22 53 -22 50 0 76 28
76 82 0 71 -71 103 -120 53z m83 -51 c3 -46 -15 -69 -47 -59 -26 8 -37 49 -22
81 9 20 17 25 39 22 24 -3 27 -8 30 -44z"/>
<path d="M1935 282 c-3 -3 -5 -38 -5 -79 0 -67 2 -73 20 -73 17 0 19 5 14 25
-5 20 -2 25 13 25 49 0 83 61 49 89 -14 12 -82 21 -91 13z m70 -47 c0 -13 -8
-21 -22 -23 -19 -3 -23 1 -23 23 0 22 4 26 23 23 14 -2 22 -10 22 -23z"/>
<path d="M1130 230 c-22 -22 -26 -51 -10 -81 13 -22 90 -28 90 -6 0 7 -13 12
-32 12 -46 0 -47 23 -1 27 32 2 37 6 35 23 -4 22 -29 45 -49 45 -7 0 -22 -9
-33 -20z"/>
<path d="M1255 232 c-3 -7 -5 -23 -5 -35 0 -11 -7 -29 -17 -39 -9 -10 -13 -21
-9 -25 13 -14 41 14 50 50 14 56 39 49 30 -8 -6 -42 -5 -45 16 -45 16 0 20 4
16 16 -3 9 -6 33 -6 54 0 36 -2 38 -35 42 -23 3 -36 -1 -40 -10z"/>
<path d="M1382 234 c-25 -17 -31 -71 -10 -92 20 -20 76 -15 88 7 15 30 12 66
-8 84 -23 21 -41 21 -70 1z m53 -49 c0 -23 -4 -30 -20 -30 -21 0 -31 25 -21
51 11 28 41 12 41 -21z"/>
</g>
</svg>
